<svg width="128" height="128" viewBox="0 0 128 128" fill="none" xmlns="http://www.w3.org/2000/svg">
<path d="M21.072 83.776C23.76 83.776 25.808 84.576 27.216 86.176C28.688 87.776 29.424 89.792 29.424 92.224C29.424 94.656 28.688 96.736 27.216 98.464C25.808 100.128 23.696 100.96 20.88 100.96C18.192 100.96 16.112 100.128 14.64 98.464C13.168 96.8 12.432 94.848 12.432 92.608C12.432 90.112 13.168 88.032 14.64 86.368C16.112 84.64 18.256 83.776 21.072 83.776ZM21.072 50.848C23.76 50.848 25.808 51.648 27.216 53.248C28.688 54.848 29.424 56.864 29.424 59.296C29.424 61.792 28.688 63.904 27.216 65.632C25.808 67.296 23.696 68.128 20.88 68.128C18.192 68.128 16.112 67.296 14.64 65.632C13.168 63.968 12.432 61.984 12.432 59.68C12.432 57.248 13.168 55.168 14.64 53.44C16.112 51.712 18.256 50.848 21.072 50.848ZM40.9208 35.008C41.3688 35.008 42.3928 35.008 43.9928 35.008C45.6568 34.944 47.5448 34.912 49.6568 34.912C51.7688 34.912 53.9448 34.912 56.1848 34.912C58.4888 34.848 60.5368 34.816 62.3288 34.816C67.7688 34.816 72.4408 35.648 76.3448 37.312C80.3128 38.912 83.5768 41.184 86.1368 44.128C88.6968 47.072 90.5848 50.592 91.8008 54.688C93.0168 58.72 93.6248 63.168 93.6248 68.032C93.6248 73.024 92.9848 77.504 91.7048 81.472C90.4888 85.44 88.5688 88.832 85.9448 91.648C83.3848 94.4 80.1208 96.512 76.1528 97.984C72.1848 99.456 67.4808 100.192 62.0408 100.192C60.1848 100.192 58.4888 100.16 56.9528 100.096C55.4168 100.096 53.8488 100.096 52.2488 100.096C50.6488 100.096 48.9528 100.064 47.1608 100C45.3688 100 43.2888 100 40.9208 100V35.008ZM61.6568 45.952C60.5688 45.952 59.7368 45.984 59.1608 46.048C58.5848 46.048 57.7848 46.048 56.7608 46.048V88.96C57.5928 89.024 58.3288 89.056 58.9688 89.056C59.6088 89.056 60.5048 89.056 61.6568 89.056C64.4728 89.056 66.8088 88.576 68.6648 87.616C70.5848 86.656 72.1208 85.28 73.2728 83.488C74.4248 81.696 75.2568 79.52 75.7688 76.96C76.2808 74.336 76.5368 71.424 76.5368 68.224C76.5368 53.376 71.5768 45.952 61.6568 45.952ZM108.882 83.776C111.57 83.776 113.618 84.576 115.026 86.176C116.498 87.776 117.234 89.792 117.234 92.224C117.234 94.656 116.498 96.736 115.026 98.464C113.618 100.128 111.506 100.96 108.69 100.96C106.002 100.96 103.922 100.128 102.45 98.464C100.978 96.8 100.242 94.848 100.242 92.608C100.242 90.112 100.978 88.032 102.45 86.368C103.922 84.64 106.066 83.776 108.882 83.776Z" fill="#111111"/>
</svg>
