<svg width="128" height="128" viewBox="0 0 128 128" fill="none" xmlns="http://www.w3.org/2000/svg">
<path d="M20.072 83.776C22.76 83.776 24.808 84.576 26.216 86.176C27.688 87.776 28.424 89.792 28.424 92.224C28.424 94.656 27.688 96.736 26.216 98.464C24.808 100.128 22.696 100.96 19.88 100.96C17.192 100.96 15.112 100.128 13.64 98.464C12.168 96.8 11.432 94.848 11.432 92.608C11.432 90.112 12.168 88.032 13.64 86.368C15.112 84.64 17.256 83.776 20.072 83.776ZM20.072 50.848C22.76 50.848 24.808 51.648 26.216 53.248C27.688 54.848 28.424 56.864 28.424 59.296C28.424 61.792 27.688 63.904 26.216 65.632C24.808 67.296 22.696 68.128 19.88 68.128C17.192 68.128 15.112 67.296 13.64 65.632C12.168 63.968 11.432 61.984 11.432 59.68C11.432 57.248 12.168 55.168 13.64 53.44C15.112 51.712 17.256 50.848 20.072 50.848ZM39.9208 35.008C40.3688 35.008 41.3928 35.008 42.9928 35.008C44.6568 34.944 46.5448 34.912 48.6568 34.912C50.7688 34.912 52.9448 34.912 55.1848 34.912C57.4888 34.848 59.5368 34.816 61.3288 34.816C66.7688 34.816 71.4408 35.648 75.3448 37.312C79.3128 38.912 82.5768 41.184 85.1368 44.128C87.6968 47.072 89.5848 50.592 90.8008 54.688C92.0168 58.72 92.6248 63.168 92.6248 68.032C92.6248 73.024 91.9848 77.504 90.7048 81.472C89.4888 85.44 87.5688 88.832 84.9448 91.648C82.3848 94.4 79.1208 96.512 75.1528 97.984C71.1848 99.456 66.4808 100.192 61.0408 100.192C59.1848 100.192 57.4888 100.16 55.9528 100.096C54.4168 100.096 52.8488 100.096 51.2488 100.096C49.6488 100.096 47.9528 100.064 46.1608 100C44.3688 100 42.2888 100 39.9208 100V35.008ZM60.6568 45.952C59.5688 45.952 58.7368 45.984 58.1608 46.048C57.5848 46.048 56.7848 46.048 55.7608 46.048V88.96C56.5928 89.024 57.3288 89.056 57.9688 89.056C58.6088 89.056 59.5048 89.056 60.6568 89.056C63.4728 89.056 65.8088 88.576 67.6648 87.616C69.5848 86.656 71.1208 85.28 72.2728 83.488C73.4248 81.696 74.2568 79.52 74.7688 76.96C75.2808 74.336 75.5368 71.424 75.5368 68.224C75.5368 53.376 70.5768 45.952 60.6568 45.952ZM107.882 83.776C110.57 83.776 112.618 84.576 114.026 86.176C115.498 87.776 116.234 89.792 116.234 92.224C116.234 94.656 115.498 96.736 114.026 98.464C112.618 100.128 110.506 100.96 107.69 100.96C105.002 100.96 102.922 100.128 101.45 98.464C99.978 96.8 99.242 94.848 99.242 92.608C99.242 90.112 99.978 88.032 101.45 86.368C102.922 84.64 105.066 83.776 107.882 83.776Z" fill="#EEEEEE"/>
</svg>
